<svg viewBox="0 0 28 30" xmlns="http://www.w3.org/2000/svg">
  <path
    d="M12.7008 29.9927C12.3407 29.9934 12.0483 29.7019 12.0476 29.3419C12.0473 29.1683 12.1163 29.0017 12.2392 28.8791L26.1228 14.9967L12.2392 1.11447C11.989 0.855487 11.9962 0.442712 12.2552 0.192529C12.5079 -0.051481 12.9084 -0.051481 13.1611 0.192529L27.505 14.5365C27.7595 14.7911 27.7595 15.2038 27.505 15.4584L13.1611 29.8023C13.0389 29.9242 12.8734 29.9927 12.7008 29.9927Z"/>
  <path
    d="M0.964703 29.9927C0.604617 29.9934 0.312197 29.7019 0.311524 29.3418C0.311219 29.1682 0.380167 29.0017 0.503089 28.879L14.3867 14.9967L0.503089 1.11444C0.248138 0.85949 0.248138 0.446164 0.503089 0.191213C0.75804 -0.0637378 1.17137 -0.0637378 1.42632 0.191213L15.7703 14.5352C16.0248 14.7897 16.0248 15.2025 15.7703 15.4571L1.42632 29.801C1.30401 29.9237 1.13793 29.9927 0.964703 29.9927Z"/>
</svg>
