<svg viewBox="0 0 107 30" fill="none" xmlns="http://www.w3.org/2000/svg">
  <path
    d="M23.4062 3.93754L19.4312 17.7215H18.7517L14.7767 3.93754C14.4454 2.80079 13.7547 1.80239 12.8083 1.09236C11.8619 0.382327 10.7109 -0.000979113 9.52835 3.55938e-05H0V30H9.53905V12.2679H10.2185L15.6808 30H22.5021L27.9537 12.2679H28.6332V30H38.1722V3.55938e-05H28.6439C27.4629 0.000470142 26.314 0.384513 25.3696 1.0945C24.4251 1.80449 23.7362 2.8021 23.4062 3.93754ZM76.2268 30H85.8247V21.1286H95.4814C100.532 21.1286 104.833 18.2679 106.497 14.25H76.2268V30ZM59.2191 3.16611L52.5049 17.7322H51.8254V3.55938e-05H42.265V30H50.3809C51.4228 29.9997 52.443 29.7016 53.3215 29.1408C54.2 28.5799 54.9004 27.7796 55.3404 26.834L62.06 12.2786H62.7394V30H72.2785V3.55938e-05H64.2C63.1545 -0.00373687 62.1298 0.292438 61.2471 0.853519C60.3644 1.4146 59.6607 2.21711 59.2191 3.16611Z"
    fill="white"/>
  <path
    d="M96.4284 0C99.2254 0.00703331 101.906 1.1209 103.886 3.0988C105.867 5.07669 106.986 7.75824 107 10.5589C106.995 11.1843 106.936 11.8081 106.823 12.4232H89.1043C86.253 12.4255 83.4752 11.5179 81.174 9.83209C78.8728 8.14629 77.168 5.77003 76.3071 3.04821C76.2835 2.98337 76.2639 2.91718 76.2482 2.85C76.2001 2.68393 76.168 2.50714 76.1198 2.34643C75.9399 1.57532 75.8254 0.790396 75.7774 0L96.4284 0Z"
    fill="white"/>
</svg>
