<svg viewBox="0 0 92 30" fill="none" xmlns="http://www.w3.org/2000/svg">
  <path d="M39.8662 29.5675H32.4137L37.0751 0.526855H44.5276L39.8662 29.5675Z" fill="white"/>
  <path
    d="M66.8806 1.2367C64.7489 0.409315 62.4826 -0.0100339 60.1981 0.000182263C52.8385 0.000182263 47.6536 3.95445 47.6242 9.60778C47.5634 13.779 51.3353 16.0963 54.1558 17.4867C57.039 18.9076 58.0196 19.8355 58.0196 21.1017C57.9902 23.0482 55.6894 23.9436 53.5441 23.9436C50.568 23.9436 48.9737 23.4802 46.5524 22.3985L45.5708 21.935L44.5258 28.4568C46.2737 29.2586 49.4935 29.9714 52.8375 30.002C60.6572 30.002 65.7482 26.1089 65.8089 20.0839C65.8383 16.7776 63.8466 14.2443 59.5532 12.1744C56.947 10.8462 55.3499 9.94982 55.3499 8.59002C55.3812 7.35442 56.7004 6.08731 59.6424 6.08731C62.0656 6.02521 63.8457 6.61195 65.1944 7.19963L65.8687 7.50829L66.8806 1.23763V1.2367Z"
    fill="white"/>
  <path
    d="M76.7876 19.2804C77.4021 17.612 79.7637 11.155 79.7637 11.155C79.7324 11.2171 80.3763 9.45595 80.7443 8.37422L81.265 10.8769C81.265 10.8769 82.6762 17.828 82.9798 19.2804H76.7876ZM85.9871 0.527782H80.22C78.4426 0.527782 77.0921 1.05242 76.3249 2.93779L65.2578 29.5693H73.0774L74.6413 25.2128H84.2089C84.4232 26.2324 85.0985 29.5693 85.0985 29.5693H91.9981L85.9871 0.526855V0.527782Z"
    fill="white"/>
  <path
    d="M26.1892 0.526806L18.8903 20.3297L18.0927 16.3142C16.7432 11.6796 12.5114 6.64452 7.78925 4.14089L14.4746 29.5387H22.3549L34.0686 0.525879L26.1892 0.526806Z"
    fill="white"/>
  <path
    d="M12.113 0.526756H0.122354L0 1.11257C9.35317 3.52259 15.5472 9.33164 18.0927 16.3142L15.4865 2.96643C15.0569 1.11257 13.7386 0.58608 12.113 0.524902V0.526756Z"
    fill="white"/>
</svg>
